<mxfile host="65bd71144e">
    <diagram id="ZOrJ16NqOoNoAuwkWN3O" name="Page-1">
        <mxGraphModel dx="792" dy="630" grid="1" gridSize="10" guides="1" tooltips="1" connect="1" arrows="1" fold="1" page="1" pageScale="1" pageWidth="1654" pageHeight="1169" math="0" shadow="0">
            <root>
                <mxCell id="0"/>
                <mxCell id="1" parent="0"/>
                <mxCell id="135" value="Role" style="swimlane;childLayout=stackLayout;resizeParent=1;resizeParentMax=0;horizontal=1;startSize=20;horizontalStack=0;" vertex="1" parent="1">
                    <mxGeometry x="32" y="20" width="1590" height="1110" as="geometry"/>
                </mxCell>
                <mxCell id="136" value="custumer" style="swimlane;startSize=20;horizontal=0;" vertex="1" parent="135">
                    <mxGeometry y="20" width="1590" height="870" as="geometry"/>
                </mxCell>
                <mxCell id="272" value="" style="verticalLabelPosition=bottom;verticalAlign=top;html=1;strokeWidth=2;shape=mxgraph.arrows2.arrow;dy=0.6;dx=40;notch=0;" vertex="1" parent="136">
                    <mxGeometry x="68" y="110" width="100" height="70" as="geometry"/>
                </mxCell>
                <mxCell id="273" value="ثبت نام&amp;nbsp;" style="text;html=1;strokeColor=none;fillColor=none;align=center;verticalAlign=middle;whiteSpace=wrap;rounded=0;" vertex="1" parent="136">
                    <mxGeometry x="78" y="130" width="60" height="30" as="geometry"/>
                </mxCell>
                <mxCell id="274" value="درخواست سطح درسترسی&amp;nbsp;" style="whiteSpace=wrap;html=1;verticalAlign=top;strokeWidth=2;fillColor=#60a917;fontColor=#ffffff;strokeColor=#2D7600;" vertex="1" parent="136">
                    <mxGeometry x="268" y="115" width="120" height="60" as="geometry"/>
                </mxCell>
                <mxCell id="275" value="" style="edgeStyle=none;html=1;" edge="1" parent="136" source="272" target="274">
                    <mxGeometry relative="1" as="geometry"/>
                </mxCell>
                <mxCell id="137" value="Postex" style="swimlane;startSize=20;horizontal=0;" vertex="1" parent="136">
                    <mxGeometry y="265" width="1590" height="560" as="geometry"/>
                </mxCell>
                <mxCell id="279" value="" style="edgeStyle=none;html=1;" edge="1" parent="137" source="276" target="278">
                    <mxGeometry relative="1" as="geometry"/>
                </mxCell>
                <mxCell id="276" value="ورود به قسمت مشتری&amp;nbsp;" style="whiteSpace=wrap;html=1;verticalAlign=top;strokeWidth=2;fillColor=#60a917;fontColor=#ffffff;strokeColor=#2D7600;" vertex="1" parent="137">
                    <mxGeometry x="268" y="45" width="120" height="60" as="geometry"/>
                </mxCell>
                <mxCell id="281" value="" style="edgeStyle=none;html=1;" edge="1" parent="137" source="278" target="280">
                    <mxGeometry relative="1" as="geometry"/>
                </mxCell>
                <mxCell id="278" value="اوارد کردن شماره یا نام کاربری مشتری&amp;nbsp;" style="whiteSpace=wrap;html=1;verticalAlign=top;strokeWidth=2;fillColor=#60a917;fontColor=#ffffff;strokeColor=#2D7600;" vertex="1" parent="137">
                    <mxGeometry x="468" y="45" width="120" height="60" as="geometry"/>
                </mxCell>
                <mxCell id="283" value="" style="edgeStyle=none;html=1;" edge="1" parent="137" source="280" target="282">
                    <mxGeometry relative="1" as="geometry"/>
                </mxCell>
                <mxCell id="280" value="انخاب سطح دستررسی&amp;nbsp;&lt;br&gt;" style="whiteSpace=wrap;html=1;verticalAlign=top;strokeWidth=2;fillColor=#60a917;fontColor=#ffffff;strokeColor=#2D7600;" vertex="1" parent="137">
                    <mxGeometry x="668" y="45" width="120" height="60" as="geometry"/>
                </mxCell>
                <mxCell id="282" value="&lt;br&gt;&lt;font style=&quot;font-size: 19px&quot;&gt;پایان&lt;br&gt;&lt;/font&gt;&lt;br&gt;" style="rhombus;whiteSpace=wrap;html=1;verticalAlign=top;fillColor=#0050ef;strokeColor=#001DBC;fontColor=#ffffff;strokeWidth=2;" vertex="1" parent="137">
                    <mxGeometry x="888" y="35" width="80" height="80" as="geometry"/>
                </mxCell>
                <mxCell id="277" value="" style="edgeStyle=none;html=1;" edge="1" parent="136" source="274" target="276">
                    <mxGeometry relative="1" as="geometry"/>
                </mxCell>
                <mxCell id="138" value="vendor" style="swimlane;startSize=20;horizontal=0;" vertex="1" parent="135">
                    <mxGeometry y="890" width="1590" height="220" as="geometry"/>
                </mxCell>
            </root>
        </mxGraphModel>
    </diagram>
</mxfile>